PathFileType	4	(X/Y/Z)	C:\Users\WrightLab\Desktop\Jo\P3_21.trc
DataRate	CameraRate	NumFrames	NumMarkers	Units	OrigDataRate	OrigDataStartFrame	OrigNumFrames
100.00	100.00	       42	19	mm	100.00	538	       614
Frame#	Time	Headset_Front			Headset_Back			Headset_Left			Headset_Right			Left_Shoulder			Right_Shoulder			Sternum			C7			Left Elbow			Right Elbow			Left Wrist			Right Wrist			Left ASIS			Right ASIS			S2			Left Knee			Right Knee			Left Ankle			Right Ankle			
		X1	Y1	Z1	X2	Y2	Z2	X3	Y3	Z3	X4	Y4	Z4	X5	Y5	Z5	X6	Y6	Z6	X7	Y7	Z7	X8	Y8	Z8	X9	Y9	Z9	X10	Y10	Z10	X11	Y11	Z11	X12	Y12	Z12	X13	Y13	Z13	X14	Y14	Z14	X15	Y15	Z15	X16	Y16	Z16	X17	Y17	Z17	X18	Y18	Z18	X19	Y19	Z19	

538	5.370																																																	-374.95779	388.29919	-1486.65503				-474.78323	73.37418	-1409.29163	
539	5.380																																																	-374.95538	388.44739	-1486.67371				-474.95093	73.29706	-1409.51025	
540	5.390																																																	-374.36270	387.84860	-1489.69543				-475.64719	74.15588	-1408.53064	
541	5.400																																																	-374.46109	387.91254	-1490.24316				-475.43161	75.89642	-1405.13794	
542	5.410																																																	-374.12436	388.44028	-1492.64221				-475.99680	76.44090	-1406.77625	
543	5.420																																																	-374.76202	389.35947	-1491.68347				-476.21146	76.41023	-1406.96350	
544	5.430																																																	-374.96332	390.09528	-1493.96265				-476.88824	76.92278	-1408.19739	
545	5.440																																																	-375.34781	389.72156	-1495.97083				-477.97223	77.79907	-1409.82031	
546	5.450																																																	-375.62109	389.42017	-1497.39026				-478.79526	77.66226	-1410.45154	
547	5.460																																																	-375.49945	389.59387	-1499.21570				-478.96249	80.49142	-1410.25293	
548	5.470																																																	-374.80255	390.39264	-1502.99353				-480.02512	80.87262	-1411.47449	
549	5.480																																																	-374.68616	390.72870	-1502.43237				-481.82397	81.81764	-1413.88379	
550	5.490																																																	-373.76559	391.39008	-1505.55371				-483.98410	84.56076	-1414.55396	
551	5.500																																																	-373.09610	391.40454	-1507.64673				-485.73569	84.33067	-1418.34888	
552	5.510																																																	-372.94778	392.77774	-1509.39648				-488.95563	85.55669	-1422.18896	
553	5.520																																																	-373.22714	392.90207	-1510.94177				-491.87152	87.48504	-1423.77795	
554	5.530																																																	-373.65375	393.53696	-1515.03613				-494.16522	89.54136	-1426.66833	
555	5.540																																																	-375.48318	394.90488	-1512.12927				-499.10577	88.93425	-1436.35364	
556	5.550																																																	-376.61566	396.12857	-1512.12927				-503.20111	88.61148	-1442.27771	
557	5.560																																																	-377.82895	397.02908	-1510.58228				-506.72522	92.26233	-1443.65601	
558	5.570																																																	-380.12860	398.15634	-1509.95300				-510.85074	94.43552	-1443.90503	
559	5.580																																																	-383.66324	397.26108	-1515.57605				-515.54272	93.96453	-1452.29028	
560	5.590																																																	-385.91870	399.31607	-1513.52734				-519.36981	95.29591	-1455.67737	
561	5.600																																																	-388.98151	400.17239	-1511.45837				-524.65930	93.06259	-1466.97107	
562	5.610																																																	-393.29550	399.13019	-1517.40161				-528.89557	95.21497	-1468.76245	
563	5.620																																																	-395.88513	401.50955	-1512.73828				-532.28143	95.91499	-1476.56189	
564	5.630																																																	-400.25549	400.67731	-1520.97021				-536.48401	94.22510	-1482.68506	
565	5.640																																																	-403.76334	402.27509	-1517.04919							
566	5.650																																																	-408.70404	402.78970	-1518.05811							
567	5.660																																																	-411.98859	402.97882	-1521.09106							
568	5.670																																																	-416.14932	402.20953	-1522.08826							
569	5.680																																																	-419.75296	401.94501	-1526.68115							
570	5.690																																																	-424.96655	403.34549	-1522.93982							
571	5.700																																																	-429.80969	402.99719	-1523.96594							
572	5.710																																																	-434.87665	402.17648	-1528.07813							
573	5.720																																																	-439.19943	403.37628	-1525.68323							
574	5.730																																																	-446.02979	403.01041	-1529.06091							
575	5.740																																																	-451.13724	404.35876	-1523.55579							
576	5.750																																																	-457.21893	403.76971	-1526.20935							
577	5.760																																																	-462.79807	402.13849	-1532.64771							
578	5.770																																																	-467.15665	403.22449	-1530.64673							
579	5.780																																																	-473.67953	401.66830	-1533.70654							
